<svg width="10" height="10" viewBox="0 0 10 10" fill="none" xmlns="http://www.w3.org/2000/svg">
<path d="M1.81836 0V2.27313H2.72711V1.36375H7.27336V0.455625H2.72711V0H1.81836Z" fill="#626469"/>
<path d="M10 3.63625V2.72687V0.455625H8.63625V0H7.72687V2.27313H8.63625V1.36375H9.09062V2.7275H0.909375V1.36375H1.36375V0.455625H0V2.7275V3.63687V10H10V3.63625ZM9.09062 9.09188H0.909375V3.63625H9.09062V9.09188Z" fill="#626469"/>
<path d="M2.72711 5.90933H1.81836V6.81871H2.72711V5.90933Z" fill="#626469"/>
<path d="M4.09039 5.90933H3.18164V6.81871H4.09039V5.90933Z" fill="#626469"/>
<path d="M5.45354 5.90933H4.54541V6.81871H5.45354V5.90933Z" fill="#626469"/>
<path d="M6.81793 5.90933H5.90918V6.81871H6.81793V5.90933Z" fill="#626469"/>
<path d="M4.09039 4.54565H3.18164V5.45503H4.09039V4.54565Z" fill="#626469"/>
<path d="M5.45354 4.54565H4.54541V5.45503H5.45354V4.54565Z" fill="#626469"/>
<path d="M6.81793 4.54565H5.90918V5.45503H6.81793V4.54565Z" fill="#626469"/>
<path d="M2.72711 7.27313H1.81836V8.18251H2.72711V7.27313Z" fill="#626469"/>
<path d="M4.09039 7.27313H3.18164V8.18251H4.09039V7.27313Z" fill="#626469"/>
<path d="M5.45354 7.27313H4.54541V8.18251H5.45354V7.27313Z" fill="#626469"/>
<path d="M6.81793 7.27313H5.90918V8.18251H6.81793V7.27313Z" fill="#626469"/>
<path d="M8.1817 5.90933H7.27295V6.81871H8.1817V5.90933Z" fill="#626469"/>
<path d="M8.1817 4.54565H7.27295V5.45503H8.1817V4.54565Z" fill="#626469"/>
</svg>
