<svg width="12" height="12" viewBox="0 0 12 12" fill="none" xmlns="http://www.w3.org/2000/svg">
<path d="M6.49878 4.06948V6.69598C6.33453 6.83323 6.22803 7.03648 6.22803 7.26748C6.22803 7.68073 6.56328 8.01598 6.97653 8.01598C7.38903 8.01598 7.72503 7.68073 7.72503 7.26748C7.72503 7.05673 7.63728 6.86773 7.49703 6.73123V4.06873H6.49878V4.06948Z" fill="white"/>
<path d="M2.0602 7.9837H3.0847C3.0442 7.82095 3.0142 7.65519 2.9932 7.48419H4.5037V6.48669H3.00145H1.99345H0.0126953V7.48419H1.98745C2.0047 7.65294 2.02795 7.81945 2.0602 7.9837Z" fill="white"/>
<path d="M10.3658 3.33825L11.3445 2.36025L10.6388 1.6545L9.56025 2.73375C8.94525 2.361 8.247 2.11275 7.497 2.03475V0.99825H8.49675V0H5.50275V0.99825H6.49875V2.0325C4.47975 2.22375 2.8065 3.61725 2.205 5.4885H3.267C3.87 4.03275 5.30475 3.00525 6.9765 3.00525C9.189 3.00525 10.9898 4.80525 10.9898 7.0185C10.9898 9.23175 9.189 11.0325 6.9765 11.0325C5.93775 11.0325 4.99725 10.629 4.28475 9.97875H5.502V8.98125H3.47925H2.3655H1.01025V9.97875H2.93775C3.85125 11.2215 5.31975 12.03 6.9765 12.03C9.7395 12.03 11.988 9.7815 11.988 7.01775C11.9873 5.56275 11.3595 4.25475 10.3658 3.33825Z" fill="white"/>
<path d="M1.5097 3.99146H0.0126953V4.9897H1.5097V3.99146Z" fill="white"/>
</svg>
