<svg width="10" height="10" viewBox="0 0 10 10" fill="none" xmlns="http://www.w3.org/2000/svg">
<path d="M5.45438 2.2725V1.36375V0.935625V0.029375C5.30375 0.015625 5.15375 0 5 0C2.24313 0 0 2.2425 0 5C0 7.75688 2.24313 10 5 10C7.75688 10 10 7.75688 10 5C10 3.45625 9.29688 2.07562 8.195 1.1575L7.5475 1.80562C7.54875 1.80562 7.54875 1.80687 7.55 1.80687L4.67875 4.67875L5.32062 5.32125L8.19312 2.44937C8.66438 3.03813 8.97688 3.75812 9.06437 4.54562H7.72687V5.455H9.06437C8.85375 7.34812 7.3475 8.85375 5.45438 9.06437V7.74875H4.54562V9.06437C2.6525 8.85437 1.14625 7.34812 0.935625 5.455H2.25063V4.545H0.93625C1.1475 2.6525 2.6525 1.14562 4.54562 0.935V2.2725H5.45438Z" fill="#626469"/>
</svg>
