<svg width="103" height="53" viewBox="0 0 103 53" fill="none" xmlns="http://www.w3.org/2000/svg">
<path d="M40.9121 23.913L63.2658 6.1615C67.1332 3.53438 71.8028 2 76.8276 2C90.1772 2 100.998 12.8208 100.998 26.1686C100.998 39.5163 90.1772 50.3371 76.8276 50.3371C71.8675 50.3371 67.2571 48.8447 63.4197 46.2822L52.1117 37.778" stroke="#3DCD58" stroke-width="4" stroke-miterlimit="10"/>
<path d="M45.7184 27.3077L34.5488 28.9669L38.6958 18.4639L45.7184 27.3077Z" fill="#3DCD58"/>
<path d="M50.8853 15.518L39.326 5.89099C35.5406 3.43052 31.0212 2.00085 26.1713 2.00085C12.8208 2.00085 2 12.8217 2 26.1694C2 39.5172 12.8208 50.338 26.1713 50.338C31.0085 50.338 35.5169 48.9184 39.2951 46.4715L66.4386 25.6568" stroke="#3DCD58" stroke-width="4" stroke-miterlimit="10"/>
<path d="M68.5638 31.1414L72.8874 20.7103L61.6914 22.1801L68.5638 31.1414Z" fill="#3DCD58"/>
</svg>
