<svg width="92" height="73" viewBox="0 0 92 73" fill="none" xmlns="http://www.w3.org/2000/svg">
<path d="M24.1414 39.4755C22.6906 37.133 21.8516 34.3696 21.8516 31.4107C21.8516 24.6368 27.3411 19.1464 34.115 19.1464C39.5345 19.1464 43.9269 23.5396 43.9269 28.9582C43.9269 33.2924 40.4108 36.8075 36.0748 36.8075" stroke="#3DCD58" stroke-width="4" stroke-miterlimit="10" stroke-linecap="round"/>
<path d="M27.2644 34.085L30.0787 45.0004L19.2188 41.9806L27.2644 34.085Z" fill="#3DCD58"/>
<path d="M40.3951 4.99316C49.6907 8.28651 56.3464 17.1539 56.3464 27.5793C56.3464 38.1611 47.7699 46.7431 37.1836 46.7431" stroke="#3DCD58" stroke-width="4" stroke-miterlimit="10" stroke-linecap="round"/>
<path d="M40.8653 11.0554L32.3906 3.62422L43.0642 0L40.8653 11.0554Z" fill="#3DCD58"/>
<path d="M23.8399 67.4014C11.191 61.3947 2.44727 48.5004 2.44727 33.5671C2.44727 19.7556 11.7955 8.12848 24.5162 4.67151" stroke="#3DCD58" stroke-width="4" stroke-miterlimit="10" stroke-linecap="round"/>
<path d="M24.2803 61.4136L31.5079 70.0628L20.4043 71.9999L24.2803 61.4136Z" fill="#3DCD58"/>
<path d="M85.9664 32.2953C82.1358 54.2815 62.9548 71 39.875 71" stroke="#3DCD58" stroke-width="4" stroke-miterlimit="10" stroke-linecap="round"/>
<path d="M80.084 33.3626L86.6643 24.2115L91.3003 34.4843L80.084 33.3626Z" fill="#3DCD58"/>
</svg>
