<svg width="74" height="82" viewBox="0 0 74 82" fill="none" xmlns="http://www.w3.org/2000/svg">
<path d="M55.7572 36.225C55.7572 46.6634 47.2945 55.126 36.8571 55.126C26.4197 55.126 17.957 46.6634 17.957 36.225V3H55.7572V36.225Z" stroke="#3DCD58" stroke-width="4.18" stroke-miterlimit="10" stroke-linecap="round"/>
<path d="M41.1682 55.7228C41.1682 72.4347 52.3887 72.8654 52.3887 72.8654V79H22.3184V72.8654C22.3184 72.8654 33.5389 72.8326 33.5389 55.7228" stroke="#3DCD58" stroke-width="4.18" stroke-miterlimit="10" stroke-linecap="round"/>
<path d="M36.9122 34.2145L28.8203 38.273L30.1789 29.3217L23.8184 22.8801L32.7503 21.4056L36.9122 13.3658L41.0749 21.4056L50.0069 22.8801L43.6473 29.3217L45.005 38.273L36.9122 34.2145Z" stroke="#3DCD58" stroke-width="4.18" stroke-miterlimit="10" stroke-linecap="round" stroke-linejoin="round"/>
<path d="M17.7567 10.361H2.23828C2.23828 10.361 2.83504 34.037 18.1546 38.811" stroke="#3DCD58" stroke-width="4.18" stroke-miterlimit="10" stroke-linecap="round" stroke-linejoin="round"/>
<path d="M56.3549 10.361H71.8733C71.8733 10.361 71.2766 34.037 55.957 38.811" stroke="#3DCD58" stroke-width="4.18" stroke-miterlimit="10" stroke-linecap="round" stroke-linejoin="round"/>
</svg>
