<svg width="87" height="80" viewBox="0 0 87 80" fill="none" xmlns="http://www.w3.org/2000/svg">
<path d="M65.6944 14.7964H80.4596C82.4201 14.7964 84.0089 16.3862 84.0089 18.3466V64.9493C84.0089 66.9116 82.421 68.4995 80.4596 68.4995H5.54929C3.58884 68.4995 2 66.9125 2 64.9493V18.3466C2 16.3871 3.58791 14.7964 5.54929 14.7964H20.6135" stroke="#3DCD58" stroke-width="4" stroke-miterlimit="10" stroke-linecap="round"/>
<path d="M2.97656 58.4189H83.4134" stroke="#3DCD58" stroke-width="4" stroke-miterlimit="10" stroke-linecap="round"/>
<path d="M34.9453 68.5005V76.2556" stroke="#3DCD58" stroke-width="4" stroke-miterlimit="10" stroke-linecap="round"/>
<path d="M50.6484 69.2764V76.0611" stroke="#3DCD58" stroke-width="4" stroke-miterlimit="10" stroke-linecap="round"/>
<path d="M26.2344 78H59.7752" stroke="#3DCD58" stroke-width="4" stroke-miterlimit="10" stroke-linecap="round"/>
<path d="M21.293 46.5323V5.55022C21.293 3.58977 22.8809 2 24.8423 2H61.1715C63.1319 2 64.7226 3.58977 64.7226 5.55022V46.5323" stroke="#3DCD58" stroke-width="4" stroke-miterlimit="10" stroke-linecap="round"/>
<path d="M29.3359 41.5516H56.6732" stroke="#3DCD58" stroke-width="4" stroke-miterlimit="10" stroke-linecap="round"/>
<path d="M29.3359 31.6637H56.6732" stroke="#3DCD58" stroke-width="4" stroke-miterlimit="10" stroke-linecap="round"/>
<path d="M29.3359 21.7758H56.6732" stroke="#3DCD58" stroke-width="4" stroke-miterlimit="10" stroke-linecap="round"/>
<path d="M29.3359 11.8888H56.6732" stroke="#3DCD58" stroke-width="4" stroke-miterlimit="10" stroke-linecap="round"/>
</svg>
